<svg xmlns="http://www.w3.org/2000/svg" width="1440" height="900" viewBox="0 0 1440 900" role="img">
  <title>Auditoria e estado</title>
  <desc>Logs, notificações, sessão e tema Dados fictícios, sem informação real de pacientes, profissionais ou instituição.</desc>
  <defs>
    <filter id="shadow" x="-15%" y="-15%" width="130%" height="130%"><feDropShadow dx="0" dy="18" stdDeviation="18" flood-color="#0f172a" flood-opacity=".13"/></filter>
    <style>.ui{font-family:Inter,Segoe UI,Arial,sans-serif;letter-spacing:0}</style>
  </defs>
  <rect width="1440" height="900" fill="#eef3f7"/>
  <rect x="34" y="28" width="1372" height="824" rx="26" fill="#ffffff" filter="url(#shadow)"/>
  <rect x="34" y="28" width="1372" height="48" rx="26" fill="#f8fafc"/>
  <circle cx="72" cy="52" r="7" fill="#ef4444"/><circle cx="96" cy="52" r="7" fill="#f59e0b"/><circle cx="120" cy="52" r="7" fill="#22c55e"/>
  <rect x="174" y="42" width="412" height="20" rx="10" fill="#e2e8f0"/>
  <rect x="60" y="102" width="230" height="700" rx="18" fill="#0b1324" stroke="#0b1324"/><circle cx="92" cy="136" r="18" fill="#3B82F6" stroke="none" stroke-width="1"/><text x="120" y="140" class="ui" font-size="19" font-weight="850" fill="#f8fafc">Cosign</text><text x="84" y="174" class="ui" font-size="11" font-weight="800" fill="#94a3b8">menu do sistema</text><text x="94" y="207" class="ui" font-size="13" font-weight="650" fill="#94a3b8">Dashboard</text><text x="94" y="255" class="ui" font-size="13" font-weight="650" fill="#94a3b8">Armários</text><text x="94" y="303" class="ui" font-size="13" font-weight="650" fill="#94a3b8">Termos</text><text x="94" y="351" class="ui" font-size="13" font-weight="650" fill="#94a3b8">Notificações</text><rect x="76" y="374" width="198" height="40" rx="10" fill="#3B82F6" stroke="#3B82F6"/><text x="94" y="399" class="ui" font-size="13" font-weight="800" fill="#ffffff">Auditoria</text><text x="326" y="118" class="ui" font-size="28" font-weight="850" fill="#101b2c">Auditoria e estado</text><text x="326" y="145" class="ui" font-size="13" font-weight="600" fill="#65758b">Logs, notificações, sessão e tema</text><rect x="326" y="160" width="56" height="4" rx="3" fill="#3B82F6" stroke="#3B82F6"/><rect x="326" y="210" width="420" height="180" rx="12" fill="#ffffff" stroke="#dce5ef"/><text x="344" y="240" class="ui" font-size="15" font-weight="800" fill="#142033">Movimentações por hora</text><line x1="348" y1="356" x2="724" y2="356" stroke="#d6dfeb" stroke-width="1" stroke-linecap="round"/><polyline points="356,347 416,327 476,356 536,288 596,303 656,258 716,268" fill="none" stroke="#3B82F6" stroke-width="5" stroke-linecap="round" stroke-linejoin="round"/><circle cx="596" cy="303" r="6" fill="#3B82F6" stroke="none" stroke-width="1"/><circle cx="656" cy="258" r="6" fill="#3B82F6" stroke="none" stroke-width="1"/><circle cx="716" cy="268" r="6" fill="#3B82F6" stroke="none" stroke-width="1"/><rect x="770" y="210" width="424" height="180" rx="12" fill="#ffffff" stroke="#dce5ef"/><text x="788" y="240" class="ui" font-size="15" font-weight="800" fill="#142033">Distribuição de status</text><rect x="800" y="308" width="55" height="48" rx="5" fill="#10B981" stroke="#10B981" opacity="0.52"/><text x="827" y="376" class="ui" font-size="10" font-weight="700" fill="#738196" text-anchor="middle">Uso</text><rect x="873" y="254" width="55" height="102" rx="5" fill="#10B981" stroke="#10B981" opacity="0.59"/><text x="900" y="376" class="ui" font-size="10" font-weight="700" fill="#738196" text-anchor="middle">Livre</text><rect x="946" y="320" width="55" height="36" rx="5" fill="#10B981" stroke="#10B981" opacity="0.66"/><text x="973" y="376" class="ui" font-size="10" font-weight="700" fill="#738196" text-anchor="middle">Venc</text><rect x="1019" y="332" width="55" height="24" rx="5" fill="#10B981" stroke="#10B981" opacity="0.73"/><text x="1046" y="376" class="ui" font-size="10" font-weight="700" fill="#738196" text-anchor="middle">Cont</text><rect x="1092" y="284" width="55" height="72" rx="5" fill="#10B981" stroke="#10B981" opacity="0.8"/><text x="1119" y="376" class="ui" font-size="10" font-weight="700" fill="#738196" text-anchor="middle">Termo</text><line x1="794" y1="356" x2="1170" y2="356" stroke="#d6dfeb" stroke-width="1" stroke-linecap="round"/><rect x="326" y="430" width="868" height="230" rx="12" fill="#ffffff" stroke="#dce5ef"/><text x="344" y="460" class="ui" font-size="16" font-weight="800" fill="#142033">Auditoria técnica do app</text><rect x="342" y="474" width="836" height="34" rx="8" fill="#f2f6fa" stroke="#f2f6fa"/><text x="354" y="496" class="ui" font-size="11" font-weight="800" fill="#617187">Quando</text><text x="558" y="496" class="ui" font-size="11" font-weight="800" fill="#617187">Ação</text><text x="762" y="496" class="ui" font-size="11" font-weight="800" fill="#617187">Origem</text><text x="966" y="496" class="ui" font-size="11" font-weight="800" fill="#617187">Resultado</text><line x1="344" y1="510" x2="1176" y2="510" stroke="#e7edf4" stroke-width="1" stroke-linecap="round"/><text x="354" y="532" class="ui" font-size="12" font-weight="600" fill="#2b3b4f">10:02</text><text x="558" y="532" class="ui" font-size="12" font-weight="600" fill="#2b3b4f">alternarPainelNotifi…</text><text x="762" y="532" class="ui" font-size="12" font-weight="600" fill="#2b3b4f">header</text><rect x="966" y="512" width="112" height="26" rx="13" fill="#e6f7ef" stroke="#e6f7ef"/><text x="1022" y="530" class="ui" font-size="12" font-weight="800" fill="#13704c" text-anchor="middle">OK</text><line x1="344" y1="552" x2="1176" y2="552" stroke="#e7edf4" stroke-width="1" stroke-linecap="round"/><text x="354" y="574" class="ui" font-size="12" font-weight="600" fill="#2b3b4f">10:08</text><text x="558" y="574" class="ui" font-size="12" font-weight="600" fill="#2b3b4f">salvarSessaoUsuario</text><text x="762" y="574" class="ui" font-size="12" font-weight="600" fill="#2b3b4f">login</text><rect x="966" y="554" width="112" height="26" rx="13" fill="#e6f7ef" stroke="#e6f7ef"/><text x="1022" y="572" class="ui" font-size="12" font-weight="800" fill="#13704c" text-anchor="middle">OK</text><line x1="344" y1="594" x2="1176" y2="594" stroke="#e7edf4" stroke-width="1" stroke-linecap="round"/><text x="354" y="616" class="ui" font-size="12" font-weight="600" fill="#2b3b4f">10:31</text><text x="558" y="616" class="ui" font-size="12" font-weight="600" fill="#2b3b4f">limparRascunhoArmario</text><text x="762" y="616" class="ui" font-size="12" font-weight="600" fill="#2b3b4f">form</text><rect x="966" y="596" width="112" height="26" rx="13" fill="#e6f7ef" stroke="#e6f7ef"/><text x="1022" y="614" class="ui" font-size="12" font-weight="800" fill="#13704c" text-anchor="middle">OK</text><line x1="344" y1="636" x2="1176" y2="636" stroke="#e7edf4" stroke-width="1" stroke-linecap="round"/><text x="354" y="658" class="ui" font-size="12" font-weight="600" fill="#2b3b4f">10:45</text><text x="558" y="658" class="ui" font-size="12" font-weight="600" fill="#2b3b4f">obterChaveMovimentac…</text><text x="762" y="658" class="ui" font-size="12" font-weight="600" fill="#2b3b4f">auditoria</text><rect x="966" y="638" width="112" height="26" rx="13" fill="#e6f7ef" stroke="#e6f7ef"/><text x="1022" y="656" class="ui" font-size="12" font-weight="800" fill="#13704c" text-anchor="middle">OK</text><rect x="326" y="720" width="414" height="132" rx="14" fill="#0b1324" stroke="#0b1324"/><text x="350" y="756" class="ui" font-size="20" font-weight="850" fill="#f8fafc">Tema escuro ativo</text><text x="350" y="786" class="ui" font-size="13" font-weight="600" fill="#94a3b8">Botão: Ativar tema escuro / claro</text><rect x="350" y="808" width="116" height="30" rx="15" fill="#1D4ED8" stroke="#1D4ED8"/><text x="408" y="828" class="ui" font-size="12" font-weight="800" fill="#ffffff" text-anchor="middle">Persistido</text><rect x="780" y="720" width="414" height="132" rx="14" fill="#ffffff" stroke="#dce5ef"/><rect x="780" y="720" width="5" height="132" rx="5" fill="#3B82F6" stroke="#3B82F6"/><text x="802" y="752" class="ui" font-size="17" font-weight="850" fill="#142033">Sidebar mobile</text><text x="802" y="776" class="ui" font-size="12" font-weight="600" fill="#66758a">Abrir menu de navegação, backdrop e</text><text x="802" y="793" class="ui" font-size="12" font-weight="600" fill="#66758a">sincronização com viewport.</text>
  <text x="1076" y="832" class="ui" font-size="11" fill="#8a98ab">Tela demonstrativa baseada no código do repositório - dados fictícios</text>
</svg>