<svg xmlns="http://www.w3.org/2000/svg" width="1440" height="900" viewBox="0 0 1440 900" role="img">
  <title>Dashboard</title>
  <desc>Filtros por perfil/unidade, armários e vencimentos Dados fictícios, sem informação real de pacientes, profissionais ou instituição.</desc>
  <defs>
    <filter id="shadow" x="-15%" y="-15%" width="130%" height="130%"><feDropShadow dx="0" dy="18" stdDeviation="18" flood-color="#0f172a" flood-opacity=".13"/></filter>
    <style>.ui{font-family:Inter,Segoe UI,Arial,sans-serif;letter-spacing:0}</style>
  </defs>
  <rect width="1440" height="900" fill="#eef3f7"/>
  <rect x="34" y="28" width="1372" height="824" rx="26" fill="#ffffff" filter="url(#shadow)"/>
  <rect x="34" y="28" width="1372" height="48" rx="26" fill="#f8fafc"/>
  <circle cx="72" cy="52" r="7" fill="#ef4444"/><circle cx="96" cy="52" r="7" fill="#f59e0b"/><circle cx="120" cy="52" r="7" fill="#22c55e"/>
  <rect x="174" y="42" width="412" height="20" rx="10" fill="#e2e8f0"/>
  <rect x="60" y="102" width="230" height="700" rx="18" fill="#0b1324" stroke="#0b1324"/><circle cx="92" cy="136" r="18" fill="#3B82F6" stroke="none" stroke-width="1"/><text x="120" y="140" class="ui" font-size="19" font-weight="850" fill="#f8fafc">Cosign</text><text x="84" y="174" class="ui" font-size="11" font-weight="800" fill="#94a3b8">menu do sistema</text><rect x="76" y="182" width="198" height="40" rx="10" fill="#3B82F6" stroke="#3B82F6"/><text x="94" y="207" class="ui" font-size="13" font-weight="800" fill="#ffffff">Dashboard</text><text x="94" y="255" class="ui" font-size="13" font-weight="650" fill="#94a3b8">Armários</text><text x="94" y="303" class="ui" font-size="13" font-weight="650" fill="#94a3b8">Termos</text><text x="94" y="351" class="ui" font-size="13" font-weight="650" fill="#94a3b8">Notificações</text><text x="94" y="399" class="ui" font-size="13" font-weight="650" fill="#94a3b8">Auditoria</text><text x="326" y="118" class="ui" font-size="28" font-weight="850" fill="#101b2c">Dashboard</text><text x="326" y="145" class="ui" font-size="13" font-weight="600" fill="#65758b">Filtros por perfil/unidade, armários e vencimentos</text><rect x="326" y="160" width="56" height="4" rx="3" fill="#3B82F6" stroke="#3B82F6"/><rect x="326" y="206" width="165" height="94" rx="14" fill="#eff6ff" stroke="#eff6ff"/><text x="344" y="236" class="ui" font-size="12" font-weight="800" fill="#1d4ed8">Em uso</text><text x="344" y="274" class="ui" font-size="30" font-weight="850" fill="#1d4ed8">24</text><text x="473" y="274" class="ui" font-size="11" font-weight="700" fill="#1d4ed8" text-anchor="end">armários</text><rect x="506" y="206" width="165" height="94" rx="14" fill="#ecfdf5" stroke="#ecfdf5"/><text x="524" y="236" class="ui" font-size="12" font-weight="800" fill="#047857">Livres</text><text x="524" y="274" class="ui" font-size="30" font-weight="850" fill="#047857">08</text><text x="653" y="274" class="ui" font-size="11" font-weight="700" fill="#047857" text-anchor="end">agora</text><rect x="686" y="206" width="165" height="94" rx="14" fill="#fff7ed" stroke="#fff7ed"/><text x="704" y="236" class="ui" font-size="12" font-weight="800" fill="#c2410c">Próximo</text><text x="704" y="274" class="ui" font-size="30" font-weight="850" fill="#c2410c">05</text><text x="833" y="274" class="ui" font-size="11" font-weight="700" fill="#c2410c" text-anchor="end">vence</text><rect x="866" y="206" width="165" height="94" rx="14" fill="#fef2f2" stroke="#fef2f2"/><text x="884" y="236" class="ui" font-size="12" font-weight="800" fill="#b91c1c">Contingência</text><text x="884" y="274" class="ui" font-size="30" font-weight="850" fill="#b91c1c">02</text><text x="1013" y="274" class="ui" font-size="11" font-weight="700" fill="#b91c1c" text-anchor="end">alerta</text><rect x="1046" y="206" width="165" height="94" rx="14" fill="#f5f3ff" stroke="#f5f3ff"/><text x="1064" y="236" class="ui" font-size="12" font-weight="800" fill="#6d28d9">Vencidos</text><text x="1064" y="274" class="ui" font-size="30" font-weight="850" fill="#6d28d9">03</text><text x="1193" y="274" class="ui" font-size="11" font-weight="700" fill="#6d28d9" text-anchor="end">ação</text><rect x="326" y="326" width="874" height="54" rx="14" fill="#ffffff" stroke="#dce5ef"/><rect x="346" y="339" width="104" height="28" rx="14" fill="#0b5ed7" stroke="#0b5ed7"/><text x="398" y="358" class="ui" font-size="12" font-weight="800" fill="#ffffff" text-anchor="middle">Todos</text><rect x="464" y="339" width="104" height="28" rx="14" fill="#f1f5f9" stroke="#f1f5f9"/><text x="516" y="358" class="ui" font-size="12" font-weight="800" fill="#526176" text-anchor="middle">Em uso</text><rect x="582" y="339" width="104" height="28" rx="14" fill="#f1f5f9" stroke="#f1f5f9"/><text x="634" y="358" class="ui" font-size="12" font-weight="800" fill="#526176" text-anchor="middle">Livre</text><rect x="700" y="339" width="104" height="28" rx="14" fill="#f1f5f9" stroke="#f1f5f9"/><text x="752" y="358" class="ui" font-size="12" font-weight="800" fill="#526176" text-anchor="middle">Contingência</text><rect x="818" y="339" width="104" height="28" rx="14" fill="#f1f5f9" stroke="#f1f5f9"/><text x="870" y="358" class="ui" font-size="12" font-weight="800" fill="#526176" text-anchor="middle">Vencido</text><rect x="930" y="337" width="246" height="32" rx="9" fill="#f8fafc" stroke="#d8e1ed"/><text x="948" y="358" class="ui" font-size="12" font-weight="600" fill="#7a8798">Buscar por paciente, prontuário ou armário</text><rect x="326" y="406" width="260" height="124" rx="14" fill="#ffffff" stroke="#dce5ef"/><text x="344" y="441" class="ui" font-size="24" font-weight="850" fill="#142033">A-012</text><text x="344" y="468" class="ui" font-size="12" font-weight="600" fill="#66758a">Paciente fictício</text><rect x="344" y="484" width="128" height="28" rx="14" fill="#eff6ff" stroke="#eff6ff"/><text x="408" y="503" class="ui" font-size="12" font-weight="800" fill="#1d4ed8" text-anchor="middle">Em uso</text><rect x="612" y="406" width="260" height="124" rx="14" fill="#ffffff" stroke="#dce5ef"/><text x="630" y="441" class="ui" font-size="24" font-weight="850" fill="#142033">A-019</text><text x="630" y="468" class="ui" font-size="12" font-weight="600" fill="#66758a">Disponível</text><rect x="630" y="484" width="128" height="28" rx="14" fill="#ecfdf5" stroke="#ecfdf5"/><text x="694" y="503" class="ui" font-size="12" font-weight="800" fill="#047857" text-anchor="middle">Livre</text><rect x="898" y="406" width="260" height="124" rx="14" fill="#ffffff" stroke="#dce5ef"/><text x="916" y="441" class="ui" font-size="24" font-weight="850" fill="#142033">B-004</text><text x="916" y="468" class="ui" font-size="12" font-weight="600" fill="#66758a">Vence em 15 min</text><rect x="916" y="484" width="128" height="28" rx="14" fill="#fff7ed" stroke="#fff7ed"/><text x="980" y="503" class="ui" font-size="12" font-weight="800" fill="#c2410c" text-anchor="middle">Próximo</text><rect x="326" y="548" width="260" height="124" rx="14" fill="#ffffff" stroke="#dce5ef"/><text x="344" y="583" class="ui" font-size="24" font-weight="850" fill="#142033">C-002</text><text x="344" y="610" class="ui" font-size="12" font-weight="600" fill="#66758a">Plano alternativo</text><rect x="344" y="626" width="128" height="28" rx="14" fill="#fef2f2" stroke="#fef2f2"/><text x="408" y="645" class="ui" font-size="12" font-weight="800" fill="#b91c1c" text-anchor="middle">Contingência</text><rect x="612" y="548" width="260" height="124" rx="14" fill="#ffffff" stroke="#dce5ef"/><text x="630" y="583" class="ui" font-size="24" font-weight="850" fill="#142033">D-011</text><text x="630" y="610" class="ui" font-size="12" font-weight="600" fill="#66758a">Entrega pendente</text><rect x="630" y="626" width="128" height="28" rx="14" fill="#fee2e2" stroke="#fee2e2"/><text x="694" y="645" class="ui" font-size="12" font-weight="800" fill="#991b1b" text-anchor="middle">Vencido</text><rect x="898" y="548" width="260" height="124" rx="14" fill="#ffffff" stroke="#dce5ef"/><text x="916" y="583" class="ui" font-size="24" font-weight="850" fill="#142033">E-006</text><text x="916" y="610" class="ui" font-size="12" font-weight="600" fill="#66758a">Termo assinado</text><rect x="916" y="626" width="128" height="28" rx="14" fill="#eff6ff" stroke="#eff6ff"/><text x="980" y="645" class="ui" font-size="12" font-weight="800" fill="#1d4ed8" text-anchor="middle">Em uso</text><rect x="326" y="674" width="548" height="130" rx="12" fill="#ffffff" stroke="#dce5ef"/><text x="344" y="704" class="ui" font-size="16" font-weight="800" fill="#142033">Auditoria recente</text><rect x="342" y="718" width="516" height="34" rx="8" fill="#f2f6fa" stroke="#f2f6fa"/><text x="354" y="740" class="ui" font-size="11" font-weight="800" fill="#617187">Horário</text><text x="478" y="740" class="ui" font-size="11" font-weight="800" fill="#617187">Evento</text><text x="602" y="740" class="ui" font-size="11" font-weight="800" fill="#617187">Usuário</text><text x="726" y="740" class="ui" font-size="11" font-weight="800" fill="#617187">Status</text><line x1="344" y1="754" x2="856" y2="754" stroke="#e7edf4" stroke-width="1" stroke-linecap="round"/><text x="354" y="776" class="ui" font-size="12" font-weight="600" fill="#2b3b4f">08:12</text><text x="478" y="776" class="ui" font-size="12" font-weight="600" fill="#2b3b4f">Retirada A-012</text><text x="602" y="776" class="ui" font-size="12" font-weight="600" fill="#2b3b4f">Recepção</text><rect x="726" y="756" width="108" height="26" rx="13" fill="#e6f7ef" stroke="#e6f7ef"/><text x="780" y="774" class="ui" font-size="12" font-weight="800" fill="#13704c" text-anchor="middle">OK</text><line x1="344" y1="788" x2="856" y2="788" stroke="#e7edf4" stroke-width="1" stroke-linecap="round"/><text x="354" y="810" class="ui" font-size="12" font-weight="600" fill="#2b3b4f">09:07</text><text x="478" y="810" class="ui" font-size="12" font-weight="600" fill="#2b3b4f">Termo salvo</text><text x="602" y="810" class="ui" font-size="12" font-weight="600" fill="#2b3b4f">NUGESP</text><rect x="726" y="790" width="108" height="26" rx="13" fill="#e6f7ef" stroke="#e6f7ef"/><text x="780" y="808" class="ui" font-size="12" font-weight="800" fill="#13704c" text-anchor="middle">OK</text><rect x="904" y="674" width="296" height="138" rx="14" fill="#ffffff" stroke="#dce5ef"/><rect x="904" y="674" width="5" height="138" rx="5" fill="#3B82F6" stroke="#3B82F6"/><text x="926" y="706" class="ui" font-size="17" font-weight="850" fill="#142033">Painel de notificações</text><text x="926" y="730" class="ui" font-size="12" font-weight="600" fill="#66758a">Notificações, tema, avatar e sessão persistida</text><text x="926" y="747" class="ui" font-size="12" font-weight="600" fill="#66758a">no cabeçalho.</text>
  <text x="1076" y="832" class="ui" font-size="11" fill="#8a98ab">Tela demonstrativa baseada no código do repositório - dados fictícios</text>
</svg>