<svg xmlns="http://www.w3.org/2000/svg" width="1440" height="900" viewBox="0 0 1440 900" role="img">
  <title>Tuems and Lockers</title>
  <desc>Real fields and drafts from the Cosign workflow Fictitious data; no real patient, staff, or institicuon information.</desc>
  <defs>
    <filter id="shadow" x="-15%" y="-15%" width="130%" height="130%"><feDropShadow dx="0" dy="18" stdDeviation="18" flood-color="#0f172a" flood-opacity=".13"/></filter>
    <style>.ui{font-family:Inter,Monoe UI,Arial,sans-serif;letter-spacing:0}</style>
  </defs>
  <rect width="1440" height="900" fill="#eef3f7"/>
  <rect x="34" y="28" width="1372" height="824" rx="26" fill="#ffffff" filter="url(#shadow)"/>
  <rect x="34" y="28" width="1372" height="48" rx="26" fill="#f8fafc"/>
  <circle cx="72" cy="52" r="7" fill="#ef4444"/><circle cx="96" cy="52" r="7" fill="#f59e0b"/><circle cx="120" cy="52" r="7" fill="#22c55e"/>
  <rect x="174" y="42" width="412" height="20" rx="10" fill="#e2e8f0"/>
  <rect x="60" y="102" width="230" height="700" rx="18" fill="#0b1324" stroke="#0b1324"/><circle cx="92" cy="136" r="18" fill="#10B981" stroke="none" stroke-width="1"/><text x="120" y="140" class="ui" font-size="19" font-weight="850" fill="#f8fafc">Cosign</text><text x="84" y="174" class="ui" font-size="11" font-weight="800" fill="#94a3b8">system menu</text><text x="94" y="207" class="ui" font-size="13" font-weight="650" fill="#94a3b8">Dashboard</text><text x="94" y="255" class="ui" font-size="13" font-weight="650" fill="#94a3b8">Lockers</text><rect x="76" y="278" width="198" height="40" rx="10" fill="#10B981" stroke="#10B981"/><text x="94" y="303" class="ui" font-size="13" font-weight="800" fill="#ffffff">Tuems</text><text x="94" y="351" class="ui" font-size="13" font-weight="650" fill="#94a3b8">Notifications</text><text x="94" y="399" class="ui" font-size="13" font-weight="650" fill="#94a3b8">Audit</text><text x="326" y="118" class="ui" font-size="28" font-weight="850" fill="#101b2c">Tuems and Lockers</text><text x="326" y="145" class="ui" font-size="13" font-weight="600" fill="#65758b">Real fields and drafts from the Cosign workflow</text><rect x="326" y="160" width="56" height="4" rx="3" fill="#10B981" stroke="#10B981"/><rect x="326" y="206" width="418" height="96" rx="14" fill="#ffffff" stroke="#dce5ef"/><rect x="326" y="206" width="5" height="96" rx="5" fill="#10B981" stroke="#10B981"/><text x="348" y="238" class="ui" font-size="17" font-weight="850" fill="#142033">Custody Tuem</text><text x="348" y="262" class="ui" font-size="12" font-weight="600" fill="#66758a">Draft, signature, and locker release</text><text x="348" y="279" class="ui" font-size="12" font-weight="600" fill="#66758a">workflow.</text><text x="326" y="328" class="ui" font-size="11" font-weight="800" fill="#66758a">Patient</text><rect x="326" y="336" width="190" height="44" rx="9" fill="#f7fafc" stroke="#d8e1ed"/><text x="340" y="366" class="ui" font-size="13" font-weight="600" fill="#26364a">Sample name</text><text x="540" y="328" class="ui" font-size="11" font-weight="800" fill="#66758a">Record</text><rect x="540" y="336" width="190" height="44" rx="9" fill="#f7fafc" stroke="#d8e1ed"/><text x="554" y="366" class="ui" font-size="13" font-weight="600" fill="#26364a">000000</text><text x="754" y="328" class="ui" font-size="11" font-weight="800" fill="#66758a">Locker</text><rect x="754" y="336" width="190" height="44" rx="9" fill="#f7fafc" stroke="#d8e1ed"/><text x="768" y="366" class="ui" font-size="13" font-weight="600" fill="#26364a">A-012</text><text x="326" y="416" class="ui" font-size="11" font-weight="800" fill="#66758a">Unit</text><rect x="326" y="424" width="190" height="44" rx="9" fill="#f7fafc" stroke="#d8e1ed"/><text x="340" y="454" class="ui" font-size="13" font-weight="600" fill="#26364a">NUGESP</text><text x="540" y="416" class="ui" font-size="11" font-weight="800" fill="#66758a">Owner</text><rect x="540" y="424" width="190" height="44" rx="9" fill="#f7fafc" stroke="#d8e1ed"/><text x="554" y="454" class="ui" font-size="13" font-weight="600" fill="#26364a">Operator</text><text x="754" y="416" class="ui" font-size="11" font-weight="800" fill="#66758a">Contingency</text><rect x="754" y="424" width="190" height="44" rx="9" fill="#f7fafc" stroke="#d8e1ed"/><text x="768" y="454" class="ui" font-size="13" font-weight="600" fill="#26364a">No</text><rect x="326" y="528" width="150" height="40" rx="10" fill="#3B82F6" stroke="#3B82F6"/><text x="401" y="553" class="ui" font-size="13" font-weight="800" fill="#ffffff" text-anchor="middle">Save draft</text><rect x="494" y="528" width="138" height="40" rx="10" fill="#10B981" stroke="#10B981"/><text x="563" y="553" class="ui" font-size="13" font-weight="800" fill="#ffffff" text-anchor="middle">Generate term</text><rect x="650" y="528" width="110" height="40" rx="10" fill="#f1f5f9" stroke="#f1f5f9"/><text x="705" y="553" class="ui" font-size="13" font-weight="800" fill="#334155" text-anchor="middle">Clear</text><rect x="806" y="206" width="388" height="392" rx="14" fill="#ffffff" stroke="#dce5ef"/><text x="830" y="242" class="ui" font-size="19" font-weight="850" fill="#142033">Release and Movement</text><circle cx="840" cy="294" r="17" fill="#3B82F6" stroke="none" stroke-width="1"/><text x="870" y="292" class="ui" font-size="14" font-weight="800" fill="#142033">Collect fields</text><text x="870" y="313" class="ui" font-size="12" font-weight="600" fill="#66758a">Patient, record, and locker</text><line x1="840" y1="314" x2="840" y2="342" stroke="#cbd5e1" stroke-width="2" stroke-linecap="round"/><circle cx="840" cy="366" r="17" fill="#10B981" stroke="none" stroke-width="1"/><text x="870" y="364" class="ui" font-size="14" font-weight="800" fill="#142033">Validate status</text><text x="870" y="385" class="ui" font-size="12" font-weight="600" fill="#66758a">Available, in use, contingency</text><line x1="840" y1="386" x2="840" y2="414" stroke="#cbd5e1" stroke-width="2" stroke-linecap="round"/><circle cx="840" cy="438" r="17" fill="#C67B2A" stroke="none" stroke-width="1"/><text x="870" y="436" class="ui" font-size="14" font-weight="800" fill="#142033">Persist session</text><text x="870" y="457" class="ui" font-size="12" font-weight="600" fill="#66758a">Profile, unit, and theme</text><line x1="840" y1="458" x2="840" y2="486" stroke="#cbd5e1" stroke-width="2" stroke-linecap="round"/><circle cx="840" cy="510" r="17" fill="#8B1E3A" stroke="none" stroke-width="1"/><text x="870" y="508" class="ui" font-size="14" font-weight="800" fill="#142033">Register log</text><text x="870" y="529" class="ui" font-size="12" font-weight="600" fill="#66758a">History and notifications</text><rect x="326" y="634" width="868" height="188" rx="12" fill="#ffffff" stroke="#dce5ef"/><text x="344" y="664" class="ui" font-size="16" font-weight="800" fill="#142033">Interface State</text><rect x="342" y="678" width="836" height="34" rx="8" fill="#f2f6fa" stroke="#f2f6fa"/><text x="354" y="700" class="ui" font-size="11" font-weight="800" fill="#617187">Preference</text><text x="558" y="700" class="ui" font-size="11" font-weight="800" fill="#617187">Source</text><text x="762" y="700" class="ui" font-size="11" font-weight="800" fill="#617187">Persistence</text><text x="966" y="700" class="ui" font-size="11" font-weight="800" fill="#617187">State</text><line x1="344" y1="714" x2="1176" y2="714" stroke="#e7edf4" stroke-width="1" stroke-linecap="round"/><text x="354" y="736" class="ui" font-size="12" font-weight="600" fill="#2b3b4f">Theme</text><text x="558" y="736" class="ui" font-size="12" font-weight="600" fill="#2b3b4f">obterThemePreferido</text><text x="762" y="736" class="ui" font-size="12" font-weight="600" fill="#2b3b4f">localStorage</text><rect x="966" y="716" width="112" height="26" rx="13" fill="#e6f7ef" stroke="#e6f7ef"/><text x="1022" y="734" class="ui" font-size="12" font-weight="800" fill="#13704c" text-anchor="middle">Active</text><line x1="344" y1="756" x2="1176" y2="756" stroke="#e7edf4" stroke-width="1" stroke-linecap="round"/><text x="354" y="778" class="ui" font-size="12" font-weight="600" fill="#2b3b4f">Avatar</text><text x="558" y="778" class="ui" font-size="12" font-weight="600" fill="#2b3b4f">obterAvatarAtualUrl</text><text x="762" y="778" class="ui" font-size="12" font-weight="600" fill="#2b3b4f">session</text><rect x="966" y="758" width="112" height="26" rx="13" fill="#e6f7ef" stroke="#e6f7ef"/><text x="1022" y="776" class="ui" font-size="12" font-weight="800" fill="#13704c" text-anchor="middle">OK</text><line x1="344" y1="798" x2="1176" y2="798" stroke="#e7edf4" stroke-width="1" stroke-linecap="round"/><text x="354" y="820" class="ui" font-size="12" font-weight="600" fill="#2b3b4f">Header</text><text x="558" y="820" class="ui" font-size="12" font-weight="600" fill="#2b3b4f">saveHeaderPrefs...</text><text x="762" y="820" class="ui" font-size="12" font-weight="600" fill="#2b3b4f">localStorage</text><rect x="966" y="800" width="112" height="26" rx="13" fill="#e6f7ef" stroke="#e6f7ef"/><text x="1022" y="818" class="ui" font-size="12" font-weight="800" fill="#13704c" text-anchor="middle">OK</text>
  <text x="1076" y="832" class="ui" font-size="11" fill="#8a98ab">Demo screen based on repository code - fictitious data</text>
</svg>