<svg xmlns="http://www.w3.org/2000/svg" width="1440" height="900" viewBox="0 0 1440 900" role="img">
  <title>Termos e armários</title>
  <desc>Campos e rascunhos reais do fluxo Cosign Dados fictícios, sem informação real de pacientes, profissionais ou instituição.</desc>
  <defs>
    <filter id="shadow" x="-15%" y="-15%" width="130%" height="130%"><feDropShadow dx="0" dy="18" stdDeviation="18" flood-color="#0f172a" flood-opacity=".13"/></filter>
    <style>.ui{font-family:Inter,Segoe UI,Arial,sans-serif;letter-spacing:0}</style>
  </defs>
  <rect width="1440" height="900" fill="#eef3f7"/>
  <rect x="34" y="28" width="1372" height="824" rx="26" fill="#ffffff" filter="url(#shadow)"/>
  <rect x="34" y="28" width="1372" height="48" rx="26" fill="#f8fafc"/>
  <circle cx="72" cy="52" r="7" fill="#ef4444"/><circle cx="96" cy="52" r="7" fill="#f59e0b"/><circle cx="120" cy="52" r="7" fill="#22c55e"/>
  <rect x="174" y="42" width="412" height="20" rx="10" fill="#e2e8f0"/>
  <rect x="60" y="102" width="230" height="700" rx="18" fill="#0b1324" stroke="#0b1324"/><circle cx="92" cy="136" r="18" fill="#10B981" stroke="none" stroke-width="1"/><text x="120" y="140" class="ui" font-size="19" font-weight="850" fill="#f8fafc">Cosign</text><text x="84" y="174" class="ui" font-size="11" font-weight="800" fill="#94a3b8">menu do sistema</text><text x="94" y="207" class="ui" font-size="13" font-weight="650" fill="#94a3b8">Dashboard</text><text x="94" y="255" class="ui" font-size="13" font-weight="650" fill="#94a3b8">Armários</text><rect x="76" y="278" width="198" height="40" rx="10" fill="#10B981" stroke="#10B981"/><text x="94" y="303" class="ui" font-size="13" font-weight="800" fill="#ffffff">Termos</text><text x="94" y="351" class="ui" font-size="13" font-weight="650" fill="#94a3b8">Notificações</text><text x="94" y="399" class="ui" font-size="13" font-weight="650" fill="#94a3b8">Auditoria</text><text x="326" y="118" class="ui" font-size="28" font-weight="850" fill="#101b2c">Termos e armários</text><text x="326" y="145" class="ui" font-size="13" font-weight="600" fill="#65758b">Campos e rascunhos reais do fluxo Cosign</text><rect x="326" y="160" width="56" height="4" rx="3" fill="#10B981" stroke="#10B981"/><rect x="326" y="206" width="418" height="96" rx="14" fill="#ffffff" stroke="#dce5ef"/><rect x="326" y="206" width="5" height="96" rx="5" fill="#10B981" stroke="#10B981"/><text x="348" y="238" class="ui" font-size="17" font-weight="850" fill="#142033">Termo de guarda</text><text x="348" y="262" class="ui" font-size="12" font-weight="600" fill="#66758a">Fluxo de rascunho, assinatura e liberação de</text><text x="348" y="279" class="ui" font-size="12" font-weight="600" fill="#66758a">armário.</text><text x="326" y="328" class="ui" font-size="11" font-weight="800" fill="#66758a">Paciente</text><rect x="326" y="336" width="190" height="44" rx="9" fill="#f7fafc" stroke="#d8e1ed"/><text x="340" y="366" class="ui" font-size="13" font-weight="600" fill="#26364a">Nome fictício</text><text x="540" y="328" class="ui" font-size="11" font-weight="800" fill="#66758a">Prontuário</text><rect x="540" y="336" width="190" height="44" rx="9" fill="#f7fafc" stroke="#d8e1ed"/><text x="554" y="366" class="ui" font-size="13" font-weight="600" fill="#26364a">000000</text><text x="754" y="328" class="ui" font-size="11" font-weight="800" fill="#66758a">Armário</text><rect x="754" y="336" width="190" height="44" rx="9" fill="#f7fafc" stroke="#d8e1ed"/><text x="768" y="366" class="ui" font-size="13" font-weight="600" fill="#26364a">A-012</text><text x="326" y="416" class="ui" font-size="11" font-weight="800" fill="#66758a">Unidade</text><rect x="326" y="424" width="190" height="44" rx="9" fill="#f7fafc" stroke="#d8e1ed"/><text x="340" y="454" class="ui" font-size="13" font-weight="600" fill="#26364a">NUGESP</text><text x="540" y="416" class="ui" font-size="11" font-weight="800" fill="#66758a">Responsável</text><rect x="540" y="424" width="190" height="44" rx="9" fill="#f7fafc" stroke="#d8e1ed"/><text x="554" y="454" class="ui" font-size="13" font-weight="600" fill="#26364a">Operador</text><text x="754" y="416" class="ui" font-size="11" font-weight="800" fill="#66758a">Contingência</text><rect x="754" y="424" width="190" height="44" rx="9" fill="#f7fafc" stroke="#d8e1ed"/><text x="768" y="454" class="ui" font-size="13" font-weight="600" fill="#26364a">Não</text><rect x="326" y="528" width="150" height="40" rx="10" fill="#3B82F6" stroke="#3B82F6"/><text x="401" y="553" class="ui" font-size="13" font-weight="800" fill="#ffffff" text-anchor="middle">Salvar rascunho</text><rect x="494" y="528" width="138" height="40" rx="10" fill="#10B981" stroke="#10B981"/><text x="563" y="553" class="ui" font-size="13" font-weight="800" fill="#ffffff" text-anchor="middle">Gerar termo</text><rect x="650" y="528" width="110" height="40" rx="10" fill="#f1f5f9" stroke="#f1f5f9"/><text x="705" y="553" class="ui" font-size="13" font-weight="800" fill="#334155" text-anchor="middle">Limpar</text><rect x="806" y="206" width="388" height="392" rx="14" fill="#ffffff" stroke="#dce5ef"/><text x="830" y="242" class="ui" font-size="19" font-weight="850" fill="#142033">Liberação e movimentação</text><circle cx="840" cy="294" r="17" fill="#3B82F6" stroke="none" stroke-width="1"/><text x="870" y="292" class="ui" font-size="14" font-weight="800" fill="#142033">Coletar campos</text><text x="870" y="313" class="ui" font-size="12" font-weight="600" fill="#66758a">Paciente, prontuário e armário</text><line x1="840" y1="314" x2="840" y2="342" stroke="#cbd5e1" stroke-width="2" stroke-linecap="round"/><circle cx="840" cy="366" r="17" fill="#10B981" stroke="none" stroke-width="1"/><text x="870" y="364" class="ui" font-size="14" font-weight="800" fill="#142033">Validar status</text><text x="870" y="385" class="ui" font-size="12" font-weight="600" fill="#66758a">Livre, em uso, contingência</text><line x1="840" y1="386" x2="840" y2="414" stroke="#cbd5e1" stroke-width="2" stroke-linecap="round"/><circle cx="840" cy="438" r="17" fill="#C67B2A" stroke="none" stroke-width="1"/><text x="870" y="436" class="ui" font-size="14" font-weight="800" fill="#142033">Persistir sessão</text><text x="870" y="457" class="ui" font-size="12" font-weight="600" fill="#66758a">Perfil, unidade e tema</text><line x1="840" y1="458" x2="840" y2="486" stroke="#cbd5e1" stroke-width="2" stroke-linecap="round"/><circle cx="840" cy="510" r="17" fill="#8B1E3A" stroke="none" stroke-width="1"/><text x="870" y="508" class="ui" font-size="14" font-weight="800" fill="#142033">Registrar log</text><text x="870" y="529" class="ui" font-size="12" font-weight="600" fill="#66758a">Histórico e notificações</text><rect x="326" y="634" width="868" height="188" rx="12" fill="#ffffff" stroke="#dce5ef"/><text x="344" y="664" class="ui" font-size="16" font-weight="800" fill="#142033">Estado de interface</text><rect x="342" y="678" width="836" height="34" rx="8" fill="#f2f6fa" stroke="#f2f6fa"/><text x="354" y="700" class="ui" font-size="11" font-weight="800" fill="#617187">Preferência</text><text x="558" y="700" class="ui" font-size="11" font-weight="800" fill="#617187">Origem</text><text x="762" y="700" class="ui" font-size="11" font-weight="800" fill="#617187">Persistência</text><text x="966" y="700" class="ui" font-size="11" font-weight="800" fill="#617187">Estado</text><line x1="344" y1="714" x2="1176" y2="714" stroke="#e7edf4" stroke-width="1" stroke-linecap="round"/><text x="354" y="736" class="ui" font-size="12" font-weight="600" fill="#2b3b4f">Tema</text><text x="558" y="736" class="ui" font-size="12" font-weight="600" fill="#2b3b4f">obterTemaPreferido</text><text x="762" y="736" class="ui" font-size="12" font-weight="600" fill="#2b3b4f">localStorage</text><rect x="966" y="716" width="112" height="26" rx="13" fill="#e6f7ef" stroke="#e6f7ef"/><text x="1022" y="734" class="ui" font-size="12" font-weight="800" fill="#13704c" text-anchor="middle">Ativo</text><line x1="344" y1="756" x2="1176" y2="756" stroke="#e7edf4" stroke-width="1" stroke-linecap="round"/><text x="354" y="778" class="ui" font-size="12" font-weight="600" fill="#2b3b4f">Avatar</text><text x="558" y="778" class="ui" font-size="12" font-weight="600" fill="#2b3b4f">obterAvatarAtualUrl</text><text x="762" y="778" class="ui" font-size="12" font-weight="600" fill="#2b3b4f">sessão</text><rect x="966" y="758" width="112" height="26" rx="13" fill="#e6f7ef" stroke="#e6f7ef"/><text x="1022" y="776" class="ui" font-size="12" font-weight="800" fill="#13704c" text-anchor="middle">OK</text><line x1="344" y1="798" x2="1176" y2="798" stroke="#e7edf4" stroke-width="1" stroke-linecap="round"/><text x="354" y="820" class="ui" font-size="12" font-weight="600" fill="#2b3b4f">Cabeçalho</text><text x="558" y="820" class="ui" font-size="12" font-weight="600" fill="#2b3b4f">salvarPreferenciasCa…</text><text x="762" y="820" class="ui" font-size="12" font-weight="600" fill="#2b3b4f">localStorage</text><rect x="966" y="800" width="112" height="26" rx="13" fill="#e6f7ef" stroke="#e6f7ef"/><text x="1022" y="818" class="ui" font-size="12" font-weight="800" fill="#13704c" text-anchor="middle">OK</text>
  <text x="1076" y="832" class="ui" font-size="11" fill="#8a98ab">Tela demonstrativa baseada no código do repositório - dados fictícios</text>
</svg>